[2026-03-15 12:00:54] [INFO] Jarvis Desktop launcher started.
[2026-03-15 12:00:54] [INFO] Runtime log path: C:\Jarvis\logs\runtime_2026-03-15_12-00-54.txt
[2026-03-15 12:00:54] [INFO] Launcher executable: C:\Users\anden\AppData\Local\Python\pythoncore-3.14-64\pythonw.exe
[2026-03-15 12:00:54] [INFO] Root directory: C:\Jarvis
[2026-03-15 12:00:54] [INFO] Target script: C:\Jarvis\jarvis_desktop_test.py
[2026-03-15 12:00:54] [INFO] Diagnostics script: C:\Jarvis\desktop\jarvis_diagnostics.pyw
[2026-03-15 12:00:54] [INFO] Recovery attempts allowed: 3
[2026-03-15 12:00:54] [INFO] Voice hook ready: C:\Jarvis\jarvis_voice.py
[2026-03-15 12:00:54] [INFO] Starting desktop renderer process. attempt=1
[2026-03-15 12:00:54] [INFO] Child executable: C:\Users\anden\AppData\Local\Python\pythoncore-3.14-64\pythonw.exe
[2026-03-15 12:00:54] [STDOUT] Jarvis Desktop Concept 1 - Version 1.02
[2026-03-15 12:00:54] [STDOUT] Hotkey: Ctrl + Alt + End
[2026-03-15 12:00:54] [STDERR] Traceback (most recent call last):
[2026-03-15 12:00:54] [STDERR]   File "C:\Jarvis\jarvis_desktop_test.py", line 44, in <module>
[2026-03-15 12:00:54] [STDERR]     raise SystemExit(main())
[2026-03-15 12:00:54] [STDERR]                      ~~~~^^
[2026-03-15 12:00:54] [STDERR]   File "C:\Jarvis\jarvis_desktop_test.py", line 36, in main
[2026-03-15 12:00:54] [STDERR]     raise RuntimeError("Jarvis test crash triggered intentionally")
[2026-03-15 12:00:54] [STDERR] RuntimeError: Jarvis test crash triggered intentionally
[2026-03-15 12:00:54] [INFO] Desktop renderer exited. exit_code=1
[2026-03-15 12:00:54] [WARN] Recovery attempt 1/3
[2026-03-15 12:00:56] [INFO] Starting desktop renderer process. attempt=2
[2026-03-15 12:00:56] [INFO] Child executable: C:\Users\anden\AppData\Local\Python\pythoncore-3.14-64\pythonw.exe
[2026-03-15 12:00:56] [STDOUT] Jarvis Desktop Concept 1 - Version 1.02
[2026-03-15 12:00:56] [STDOUT] Hotkey: Ctrl + Alt + End
[2026-03-15 12:00:56] [STDERR] Traceback (most recent call last):
[2026-03-15 12:00:56] [STDERR]   File "C:\Jarvis\jarvis_desktop_test.py", line 44, in <module>
[2026-03-15 12:00:56] [STDERR]     raise SystemExit(main())
[2026-03-15 12:00:56] [STDERR]                      ~~~~^^
[2026-03-15 12:00:56] [STDERR]   File "C:\Jarvis\jarvis_desktop_test.py", line 36, in main
[2026-03-15 12:00:56] [STDERR]     raise RuntimeError("Jarvis test crash triggered intentionally")
[2026-03-15 12:00:56] [STDERR] RuntimeError: Jarvis test crash triggered intentionally
[2026-03-15 12:00:56] [INFO] Desktop renderer exited. exit_code=1
[2026-03-15 12:00:56] [WARN] Recovery attempt 2/3
[2026-03-15 12:00:57] [INFO] Starting desktop renderer process. attempt=3
[2026-03-15 12:00:57] [INFO] Child executable: C:\Users\anden\AppData\Local\Python\pythoncore-3.14-64\pythonw.exe
[2026-03-15 12:00:58] [STDOUT] Jarvis Desktop Concept 1 - Version 1.02
[2026-03-15 12:00:58] [STDOUT] Hotkey: Ctrl + Alt + End
[2026-03-15 12:00:58] [STDERR] Traceback (most recent call last):
[2026-03-15 12:00:58] [STDERR]   File "C:\Jarvis\jarvis_desktop_test.py", line 44, in <module>
[2026-03-15 12:00:58] [STDERR]     raise SystemExit(main())
[2026-03-15 12:00:58] [STDERR]                      ~~~~^^
[2026-03-15 12:00:58] [STDERR]   File "C:\Jarvis\jarvis_desktop_test.py", line 36, in main
[2026-03-15 12:00:58] [STDERR]     raise RuntimeError("Jarvis test crash triggered intentionally")
[2026-03-15 12:00:58] [STDERR] RuntimeError: Jarvis test crash triggered intentionally
[2026-03-15 12:00:58] [INFO] Desktop renderer exited. exit_code=1
[2026-03-15 12:00:58] [ERROR] Crash log written: C:\Jarvis\logs\crash\crash_2026-03-15_12-00-58.txt
[2026-03-15 12:00:58] [INFO] Trying voice line 'Uhm..... Sir, I seem to be malfunctioning.' using voice --text --mode
[2026-03-15 12:01:04] [VOICE_STDOUT] ffmpeg version 2026-03-12-git-9dc44b43b2-essentials_build-www.gyan.dev Copyright (c) 2000-2026 the FFmpeg developers
[2026-03-15 12:01:04] [VOICE_STDOUT]   built with gcc 15.2.0 (Rev11, Built by MSYS2 project)
[2026-03-15 12:01:04] [VOICE_STDOUT]   configuration: --enable-gpl --enable-version3 --enable-static --disable-w32threads --disable-autodetect --enable-cairo --enable-fontconfig --enable-iconv --enable-gnutls --enable-libxml2 --enable-gmp --enable-bzlib --enable-lzma --enable-zlib --enable-libsrt --enable-libssh --enable-libzmq --enable-avisynth --enable-sdl2 --enable-libwebp --enable-libx264 --enable-libx265 --enable-libxvid --enable-libaom --enable-libopenjpeg --enable-libvpx --enable-mediafoundation --enable-libass --enable-libfreetype --enable-libfribidi --enable-libharfbuzz --enable-libvidstab --enable-libvmaf --enable-libzimg --enable-amf --enable-cuda-llvm --enable-cuvid --enable-dxva2 --enable-d3d11va --enable-d3d12va --enable-ffnvcodec --enable-libvpl --enable-nvdec --enable-nvenc --enable-vaapi --enable-openal --enable-libgme --enable-libopenmpt --enable-libopencore-amrwb --enable-libmp3lame --enable-libtheora --enable-libvo-amrwbenc --enable-libgsm --enable-libopencore-amrnb --enable-libopus --enable-libspeex --enable-libvorbis --enable-librubberband
[2026-03-15 12:01:04] [VOICE_STDOUT]   libavutil      60. 27.100 / 60. 27.100
[2026-03-15 12:01:04] [VOICE_STDOUT]   libavcodec     62. 29.100 / 62. 29.100
[2026-03-15 12:01:04] [VOICE_STDOUT]   libavformat    62. 13.100 / 62. 13.100
[2026-03-15 12:01:04] [VOICE_STDOUT]   libavdevice    62.  4.100 / 62.  4.100
[2026-03-15 12:01:04] [VOICE_STDOUT]   libavfilter    11. 15.101 / 11. 15.101
[2026-03-15 12:01:04] [VOICE_STDOUT]   libswscale      9.  6.100 /  9.  6.100
[2026-03-15 12:01:04] [VOICE_STDOUT]   libswresample   6.  4.100 /  6.  4.100
[2026-03-15 12:01:04] [VOICE_STDOUT] [in#0/mp3 @ 00000195cc8b4a80] Estimating duration from bitrate, this may be inaccurate
[2026-03-15 12:01:04] [VOICE_STDOUT] Input #0, mp3, from 'C:\Users\anden\AppData\Local\Temp\tmpqgca_klb.mp3':
[2026-03-15 12:01:04] [VOICE_STDOUT]   Duration: 00:00:05.14, start: 0.000000, bitrate: 48 kb/s
[2026-03-15 12:01:04] [VOICE_STDOUT]   Stream #0:0: Audio: mp3 (mp3float), 24000 Hz, mono, fltp, 48 kb/s
[2026-03-15 12:01:04] [VOICE_STDOUT] Stream mapping:
[2026-03-15 12:01:04] [VOICE_STDOUT]   Stream #0:0 (mp3float) -> asplit:default
[2026-03-15 12:01:04] [VOICE_STDOUT]   volume:default -> Stream #0:0 (pcm_s16le)
[2026-03-15 12:01:04] [VOICE_STDOUT] Press [q] to stop, [?] for help
[2026-03-15 12:01:04] [VOICE_STDOUT] [Parsed_chorus_11 @ 00000195cc935880] output gain can cause saturation or clipping of output
[2026-03-15 12:01:04] [VOICE_STDOUT] [Parsed_volume_14 @ 00000195cc934880] Invalid value NaN for volume
[2026-03-15 12:01:04] [VOICE_STDOUT] [Parsed_volume_14 @ 00000195cc934880] Failed to configure output pad on Parsed_volume_14
[2026-03-15 12:01:04] [VOICE_STDOUT] [fc#0 @ 00000195cc8a7100] Error reinitializing filters!
[2026-03-15 12:01:04] [VOICE_STDOUT] [fc#0 @ 00000195cc8a7100] Task finished with error code: -22 (Invalid argument)
[2026-03-15 12:01:04] [VOICE_STDOUT] [fc#0 @ 00000195cc8a7100] Terminating thread with return code -22 (Invalid argument)
[2026-03-15 12:01:04] [VOICE_STDOUT] [aost#0:0/pcm_s16le @ 00000195cc8aaf40] [enc:pcm_s16le @ 00000195cc8c85c0] Could not open encoder before EOF
[2026-03-15 12:01:04] [VOICE_STDOUT] [aost#0:0/pcm_s16le @ 00000195cc8aaf40] Task finished with error code: -22 (Invalid argument)
[2026-03-15 12:01:04] [VOICE_STDOUT] [aost#0:0/pcm_s16le @ 00000195cc8aaf40] Terminating thread with return code -22 (Invalid argument)
[2026-03-15 12:01:04] [VOICE_STDOUT] [out#0/wav @ 00000195cc8b7500] Nothing was written into output file, because at least one of its streams received no packets.
[2026-03-15 12:01:04] [VOICE_STDOUT] size=       0KiB time=N/A bitrate=N/A speed=N/A elapsed=0:00:00.00    
[2026-03-15 12:01:04] [VOICE_STDOUT] Conversion failed!
[2026-03-15 12:01:04] [VOICE_STDERR] [mp3 @ 000001C0824C21C0] Estimating duration from bitrate, this may be inaccurate
[2026-03-15 12:01:04] [VOICE_STDERR] Input #0, mp3, from 'C:/Users/anden/AppData/Local/Temp/tmpqgca_klb.mp3':
[2026-03-15 12:01:04] [VOICE_STDERR]   Duration: 00:00:05.14, start: 0.000000, bitrate: 48 kb/s
[2026-03-15 12:01:04] [VOICE_STDERR]   Stream #0:0: Audio: mp3 (mp3float), 24000 Hz, mono, fltp, 48 kb/s
[2026-03-15 12:01:04] [INFO] Voice line completed: Uhm..... Sir, I seem to be malfunctioning.
[2026-03-15 12:01:04] [INFO] Failure voice step 1/3 success=True line=Uhm..... Sir, I seem to be malfunctioning.
[2026-03-15 12:01:05] [INFO] Trying voice line 'Attempting restart.' using voice --text --mode
[2026-03-15 12:01:09] [VOICE_STDOUT] ffmpeg version 2026-03-12-git-9dc44b43b2-essentials_build-www.gyan.dev Copyright (c) 2000-2026 the FFmpeg developers
[2026-03-15 12:01:09] [VOICE_STDOUT]   built with gcc 15.2.0 (Rev11, Built by MSYS2 project)
[2026-03-15 12:01:09] [VOICE_STDOUT]   configuration: --enable-gpl --enable-version3 --enable-static --disable-w32threads --disable-autodetect --enable-cairo --enable-fontconfig --enable-iconv --enable-gnutls --enable-libxml2 --enable-gmp --enable-bzlib --enable-lzma --enable-zlib --enable-libsrt --enable-libssh --enable-libzmq --enable-avisynth --enable-sdl2 --enable-libwebp --enable-libx264 --enable-libx265 --enable-libxvid --enable-libaom --enable-libopenjpeg --enable-libvpx --enable-mediafoundation --enable-libass --enable-libfreetype --enable-libfribidi --enable-libharfbuzz --enable-libvidstab --enable-libvmaf --enable-libzimg --enable-amf --enable-cuda-llvm --enable-cuvid --enable-dxva2 --enable-d3d11va --enable-d3d12va --enable-ffnvcodec --enable-libvpl --enable-nvdec --enable-nvenc --enable-vaapi --enable-openal --enable-libgme --enable-libopenmpt --enable-libopencore-amrwb --enable-libmp3lame --enable-libtheora --enable-libvo-amrwbenc --enable-libgsm --enable-libopencore-amrnb --enable-libopus --enable-libspeex --enable-libvorbis --enable-librubberband
[2026-03-15 12:01:09] [VOICE_STDOUT]   libavutil      60. 27.100 / 60. 27.100
[2026-03-15 12:01:09] [VOICE_STDOUT]   libavcodec     62. 29.100 / 62. 29.100
[2026-03-15 12:01:09] [VOICE_STDOUT]   libavformat    62. 13.100 / 62. 13.100
[2026-03-15 12:01:09] [VOICE_STDOUT]   libavdevice    62.  4.100 / 62.  4.100
[2026-03-15 12:01:09] [VOICE_STDOUT]   libavfilter    11. 15.101 / 11. 15.101
[2026-03-15 12:01:09] [VOICE_STDOUT]   libswscale      9.  6.100 /  9.  6.100
[2026-03-15 12:01:09] [VOICE_STDOUT]   libswresample   6.  4.100 /  6.  4.100
[2026-03-15 12:01:09] [VOICE_STDOUT] [in#0/mp3 @ 0000020a7fd94a80] Estimating duration from bitrate, this may be inaccurate
[2026-03-15 12:01:09] [VOICE_STDOUT] Input #0, mp3, from 'C:\Users\anden\AppData\Local\Temp\tmp9yvqvzaw.mp3':
[2026-03-15 12:01:09] [VOICE_STDOUT]   Duration: 00:00:02.66, start: 0.000000, bitrate: 48 kb/s
[2026-03-15 12:01:09] [VOICE_STDOUT]   Stream #0:0: Audio: mp3 (mp3float), 24000 Hz, mono, fltp, 48 kb/s
[2026-03-15 12:01:09] [VOICE_STDOUT] Stream mapping:
[2026-03-15 12:01:09] [VOICE_STDOUT]   Stream #0:0 (mp3float) -> asplit:default
[2026-03-15 12:01:09] [VOICE_STDOUT]   volume:default -> Stream #0:0 (pcm_s16le)
[2026-03-15 12:01:09] [VOICE_STDOUT] Press [q] to stop, [?] for help
[2026-03-15 12:01:09] [VOICE_STDOUT] [Parsed_chorus_11 @ 0000020a7fe16f40] output gain can cause saturation or clipping of output
[2026-03-15 12:01:09] [VOICE_STDOUT] [Parsed_volume_14 @ 0000020a7fe16c00] Invalid value NaN for volume
[2026-03-15 12:01:09] [VOICE_STDOUT] [Parsed_volume_14 @ 0000020a7fe16c00] Failed to configure output pad on Parsed_volume_14
[2026-03-15 12:01:09] [VOICE_STDOUT] [fc#0 @ 0000020a7fd87140] Error reinitializing filters!
[2026-03-15 12:01:09] [VOICE_STDOUT] [fc#0 @ 0000020a7fd87140] Task finished with error code: -22 (Invalid argument)
[2026-03-15 12:01:09] [VOICE_STDOUT] [fc#0 @ 0000020a7fd87140] Terminating thread with return code -22 (Invalid argument)
[2026-03-15 12:01:09] [VOICE_STDOUT] [aost#0:0/pcm_s16le @ 0000020a7fd8b300] [enc:pcm_s16le @ 0000020a7fda8ec0] Could not open encoder before EOF
[2026-03-15 12:01:09] [VOICE_STDOUT] [aost#0:0/pcm_s16le @ 0000020a7fd8b300] Task finished with error code: -22 (Invalid argument)
[2026-03-15 12:01:09] [VOICE_STDOUT] [aost#0:0/pcm_s16le @ 0000020a7fd8b300] Terminating thread with return code -22 (Invalid argument)
[2026-03-15 12:01:09] [VOICE_STDOUT] [out#0/wav @ 0000020a7fd97d80] Nothing was written into output file, because at least one of its streams received no packets.
[2026-03-15 12:01:09] [VOICE_STDOUT] size=       0KiB time=N/A bitrate=N/A speed=N/A elapsed=0:00:00.00    
[2026-03-15 12:01:09] [VOICE_STDOUT] Conversion failed!
[2026-03-15 12:01:09] [VOICE_STDERR] [mp3 @ 0000023531BE7800] Estimating duration from bitrate, this may be inaccurate
[2026-03-15 12:01:09] [VOICE_STDERR] Input #0, mp3, from 'C:/Users/anden/AppData/Local/Temp/tmp9yvqvzaw.mp3':
[2026-03-15 12:01:09] [VOICE_STDERR]   Duration: 00:00:02.66, start: 0.000000, bitrate: 48 kb/s
[2026-03-15 12:01:09] [VOICE_STDERR]   Stream #0:0: Audio: mp3 (mp3float), 24000 Hz, mono, fltp, 48 kb/s
[2026-03-15 12:01:09] [INFO] Voice line completed: Attempting restart.
[2026-03-15 12:01:09] [INFO] Failure voice step 2/3 success=True line=Attempting restart.
[2026-03-15 12:01:10] [INFO] Trying voice line 'Restart failed.' using voice --text --mode
[2026-03-15 12:01:14] [VOICE_STDOUT] ffmpeg version 2026-03-12-git-9dc44b43b2-essentials_build-www.gyan.dev Copyright (c) 2000-2026 the FFmpeg developers
[2026-03-15 12:01:14] [VOICE_STDOUT]   built with gcc 15.2.0 (Rev11, Built by MSYS2 project)
[2026-03-15 12:01:14] [VOICE_STDOUT]   configuration: --enable-gpl --enable-version3 --enable-static --disable-w32threads --disable-autodetect --enable-cairo --enable-fontconfig --enable-iconv --enable-gnutls --enable-libxml2 --enable-gmp --enable-bzlib --enable-lzma --enable-zlib --enable-libsrt --enable-libssh --enable-libzmq --enable-avisynth --enable-sdl2 --enable-libwebp --enable-libx264 --enable-libx265 --enable-libxvid --enable-libaom --enable-libopenjpeg --enable-libvpx --enable-mediafoundation --enable-libass --enable-libfreetype --enable-libfribidi --enable-libharfbuzz --enable-libvidstab --enable-libvmaf --enable-libzimg --enable-amf --enable-cuda-llvm --enable-cuvid --enable-dxva2 --enable-d3d11va --enable-d3d12va --enable-ffnvcodec --enable-libvpl --enable-nvdec --enable-nvenc --enable-vaapi --enable-openal --enable-libgme --enable-libopenmpt --enable-libopencore-amrwb --enable-libmp3lame --enable-libtheora --enable-libvo-amrwbenc --enable-libgsm --enable-libopencore-amrnb --enable-libopus --enable-libspeex --enable-libvorbis --enable-librubberband
[2026-03-15 12:01:14] [VOICE_STDOUT]   libavutil      60. 27.100 / 60. 27.100
[2026-03-15 12:01:14] [VOICE_STDOUT]   libavcodec     62. 29.100 / 62. 29.100
[2026-03-15 12:01:14] [VOICE_STDOUT]   libavformat    62. 13.100 / 62. 13.100
[2026-03-15 12:01:14] [VOICE_STDOUT]   libavdevice    62.  4.100 / 62.  4.100
[2026-03-15 12:01:14] [VOICE_STDOUT]   libavfilter    11. 15.101 / 11. 15.101
[2026-03-15 12:01:14] [VOICE_STDOUT]   libswscale      9.  6.100 /  9.  6.100
[2026-03-15 12:01:14] [VOICE_STDOUT]   libswresample   6.  4.100 /  6.  4.100
[2026-03-15 12:01:14] [VOICE_STDOUT] [in#0/mp3 @ 00000155ed0e4a40] Estimating duration from bitrate, this may be inaccurate
[2026-03-15 12:01:14] [VOICE_STDOUT] Input #0, mp3, from 'C:\Users\anden\AppData\Local\Temp\tmp9xe2olyl.mp3':
[2026-03-15 12:01:14] [VOICE_STDOUT]   Duration: 00:00:02.57, start: 0.000000, bitrate: 48 kb/s
[2026-03-15 12:01:14] [VOICE_STDOUT]   Stream #0:0: Audio: mp3 (mp3float), 24000 Hz, mono, fltp, 48 kb/s
[2026-03-15 12:01:14] [VOICE_STDOUT] Stream mapping:
[2026-03-15 12:01:14] [VOICE_STDOUT]   Stream #0:0 (mp3float) -> asplit:default
[2026-03-15 12:01:14] [VOICE_STDOUT]   volume:default -> Stream #0:0 (pcm_s16le)
[2026-03-15 12:01:14] [VOICE_STDOUT] Press [q] to stop, [?] for help
[2026-03-15 12:01:14] [VOICE_STDOUT] [Parsed_chorus_11 @ 00000155ed163980] output gain can cause saturation or clipping of output
[2026-03-15 12:01:14] [VOICE_STDOUT] [Parsed_volume_14 @ 00000155ed164a80] Invalid value NaN for volume
[2026-03-15 12:01:14] [VOICE_STDOUT] [Parsed_volume_14 @ 00000155ed164a80] Failed to configure output pad on Parsed_volume_14
[2026-03-15 12:01:14] [VOICE_STDOUT] [fc#0 @ 00000155ed0d7140] Error reinitializing filters!
[2026-03-15 12:01:14] [VOICE_STDOUT] [fc#0 @ 00000155ed0d7140] Task finished with error code: -22 (Invalid argument)
[2026-03-15 12:01:14] [VOICE_STDOUT] [fc#0 @ 00000155ed0d7140] Terminating thread with return code -22 (Invalid argument)
[2026-03-15 12:01:14] [VOICE_STDOUT] [aost#0:0/pcm_s16le @ 00000155ed0db300] [enc:pcm_s16le @ 00000155ed0f8100] Could not open encoder before EOF
[2026-03-15 12:01:14] [VOICE_STDOUT] [aost#0:0/pcm_s16le @ 00000155ed0db300] Task finished with error code: -22 (Invalid argument)
[2026-03-15 12:01:14] [VOICE_STDOUT] [aost#0:0/pcm_s16le @ 00000155ed0db300] Terminating thread with return code -22 (Invalid argument)
[2026-03-15 12:01:14] [VOICE_STDOUT] [out#0/wav @ 00000155ed0e7e40] Nothing was written into output file, because at least one of its streams received no packets.
[2026-03-15 12:01:14] [VOICE_STDOUT] size=       0KiB time=N/A bitrate=N/A speed=N/A elapsed=0:00:00.00    
[2026-03-15 12:01:14] [VOICE_STDOUT] Conversion failed!
[2026-03-15 12:01:14] [VOICE_STDERR] [mp3 @ 000001BF8E377080] Estimating duration from bitrate, this may be inaccurate
[2026-03-15 12:01:14] [VOICE_STDERR] Input #0, mp3, from 'C:/Users/anden/AppData/Local/Temp/tmp9xe2olyl.mp3':
[2026-03-15 12:01:14] [VOICE_STDERR]   Duration: 00:00:02.57, start: 0.000000, bitrate: 48 kb/s
[2026-03-15 12:01:14] [VOICE_STDERR]   Stream #0:0: Audio: mp3 (mp3float), 24000 Hz, mono, fltp, 48 kb/s
[2026-03-15 12:01:14] [INFO] Voice line completed: Restart failed.
[2026-03-15 12:01:14] [INFO] Failure voice step 3/3 success=True line=Restart failed.
[2026-03-15 12:01:15] [INFO] Diagnostics process launched.
